<?xml version="1.0" encoding="UTF-8" standalone="no"?>
<svg xmlns:rdf="http://www.w3.org/1999/02/22-rdf-syntax-ns#" xmlns="http://www.w3.org/2000/svg" height="120" width="50" version="1.1" xmlns:cc="http://creativecommons.org/ns#" xmlns:xlink="http://www.w3.org/1999/xlink" viewBox="0 0 50 120" xmlns:dc="http://purl.org/dc/elements/1.1/">
	<metadata>
		<rdf:RDF>
			<cc:Work rdf:about="">
				<dc:format>image/svg+xml</dc:format>
				<dc:type rdf:resource="http://purl.org/dc/dcmitype/StillImage"/>
				<dc:title>Echo Badge</dc:title>
				<dc:date>2017-06-07</dc:date>
				<dc:creator>
					<cc:Agent>
						<dc:title>Raymond Dodge</dc:title>
					</cc:Agent>
				</dc:creator>
				<dc:identifier>tag:rayrobdod.name,2017-06-07:echoBadge</dc:identifier>
				<dc:subject>
					<rdf:Bag>
						<rdf:li>Twitch Plays Pokémon</rdf:li>
					</rdf:Bag>
				</dc:subject>
				<dc:description>A Ghost-type badge based on the Jet Badge; based on the randomization in Twitch Plays Pokémon Randomized White 2</dc:description>
			</cc:Work>
		</rdf:RDF>
	</metadata>
	<defs>
		<linearGradient id="inner-shine">
			<stop stop-color="#c977c3" offset="0"/>
			<stop stop-color="#c977c3" offset="0.66"/>
			<stop stop-color="#b53bad" offset="1"/>
		</linearGradient>
		<linearGradient id="gold-shine">
			<stop stop-color="#e8b844" offset="0"/>
			<stop stop-color="#e8b844" offset=".38"/>
			<stop stop-color="#f3ee9d" offset=".43"/>
			<stop stop-color="#e8b844" offset=".48"/>
			<stop stop-color="#e8b844" offset=".7"/>
			<stop stop-color="#f3ee9d" offset="1"/>
		</linearGradient>
		<linearGradient id="linearGradient4367" y2="120" xlink:href="#gold-shine" gradientUnits="userSpaceOnUse" x2="10" x1="35"/>
		<radialGradient id="radialGradient4242" xlink:href="#inner-shine" gradientUnits="userSpaceOnUse" cy="69.623" cx="31.621" r="21"/>
		<radialGradient id="radialGradient4252" xlink:href="#inner-shine" gradientUnits="userSpaceOnUse" cy="115.36" cx="32.831" gradientTransform="matrix(.87347 0 0 .55227 3.7326 51.651)" r="23.001"/>
	</defs>
	<title>Echo Badge</title>
	<g>
		<path fill="#59530b" d="m14.998 92.188c0.88399 0.88994 1.8311 1.6785 2.8281 2.3672l-2.0996 7.5566c-0.32313-0.27515-0.65945-0.42969-0.92383-0.97852-0.24258-0.50357-0.45621-2.9614-0.30078-5.0039s0.4668-3.7734 0.4668-3.7734l0.0293-0.16797zm7.8203-90.334 1.25 4.6641c2.453 9.1529 3.217 15.297 2.473 19.961-0.744 4.663-2.903 8.055-6.955 12.107-6.95 6.95-12.586 19.019-12.586 29.414 0 9.4152 2.1982 16.743 5.9961 21.852l-0.72852 0.28711s-2.2738 0.88805-4.5371 2.748c-2.2627 1.86-4.7299 4.909-4.7299 9.113 0 3.8657 1.3638 6.8951 3.3398 9.0742s4.4599 3.5627 6.7676 4.7148c4.948 2.47 9.365 2.21 17.893 2.21 3.1552 0 7.3474-0.56819 11.027-2.4394 3.68-1.87 6.893-5.39 6.973-10.53 0.095-6.125-2.085-12.178-3.666-15.755 2.319-3.65 3.666-8.385 3.666-14.082 0-8.02-1.238-13.669-3.684-17.523-1.916-3.02-4.694-4.749-7.746-5.373 3.487-4.929 5.43-11.204 5.43-17.477 0-7.665-2.549-22.786-16-30.552l-4.182-2.4145z"/>
		<path d="m32.65 54.054c4.683-4.683 7.35-12.047 7.35-19.234 0-7.214-2.441-21.569-15-28.82 4.965 18.53 3.412 25.588-5 34-6.487 6.487-12 18.368-12 28 0 18.629 8.904 28 20 28 9.654 0 18-6.886 18-20.806 0-15.615-4.99-21.194-12-21.194-6.5617 0-12.612 8.2457-12.75 14.806-0.12277 5.8476 2.9011 13.351 8.75 13.351 3.3915 0 7.8637-2.9924 7-10.282" stroke="url(#linearGradient4367)" stroke-linecap="round" stroke-width="4px" fill="url(#radialGradient4242)"/>
		<path d="m30 116c-8.564 0-12.525 0.23442-17-2-4.4754-2.2344-9-5.1492-9-12s8-10 8-10-1.3143 7.2715 0 10 4 3 4 3l5-18 5 15 5-15 5 15 5-15s5.1357 9.2586 5 18c-0.13566 8.7414-10.21 11-16 11z" stroke="url(#linearGradient4367)" stroke-width="4px" fill="url(#radialGradient4252)"/>
		<path fill-opacity=".32941" fill="#1a1828" d="m28.002 10.607c1.456 6.568 2.197 12.075 1.49 16.502-0.894 5.601-3.718 9.945-8.078 14.305-6.025 6.025-11.414 17.717-11.414 26.586 0 8.996 2.157 15.541 5.422 19.762 0.788 1.019 1.646 1.894 2.553 2.658l0.314-1.133c-2.03-4.059-3.289-9.454-3.289-16.287 0-8.869 5.389-20.561 11.414-26.586 4.36-4.36 7.184-8.704 8.078-14.305 0.652-4.082 0.064-9.095-1.172-14.998-1.37-2.33-3.104-4.561-5.318-6.504zm5.998 45.393c-2.443 0-5.143 1.643-7.234 4.207-2.092 2.565-3.46 5.957-3.516 8.641-0.04 1.884 0.322 4.04 1.012 5.931 0.124 0.34 0.257 0.673 0.402 0.992 0.145 0.32 0.298 0.628 0.463 0.92 0.14 0.249 0.284 0.484 0.432 0.707l0.002 0.002c0.147 0.223 0.299 0.434 0.455 0.631l0.002 0.002c0.312 0.395 0.642 0.74 0.992 1.029 0.006 0.006 0.009 0.002 0.015 0.006 0.703 0.574 1.484 0.929 2.364 1.041-0.773-1.968-1.181-4.265-1.139-6.261 0.056-2.684 1.424-6.076 3.516-8.641 2.091-2.564 4.791-4.207 7.234-4.207 1.011 0 1.922 0.125 2.764 0.385-0.261-0.574-0.532-1.112-0.825-1.573-0.261-0.412-0.532-0.778-0.81-1.115-0.017-0.02-0.034-0.042-0.051-0.062-0.025-0.03-0.049-0.065-0.074-0.094-0.055-0.063-0.113-0.115-0.168-0.176-0.098-0.106-0.197-0.21-0.297-0.308-0.09-0.089-0.181-0.178-0.273-0.26-0.093-0.082-0.187-0.157-0.282-0.233-0.206-0.166-0.418-0.316-0.634-0.453-0.043-0.026-0.084-0.056-0.127-0.082-0.154-0.092-0.312-0.175-0.471-0.254l-0.018-0.009c-0.007-0.004-0.015-0.006-0.023-0.01-1.09-0.527-2.307-0.756-3.711-0.756zm4.557 14.553c0.222 0.277 0.38 0.636 0.429 1.088 0.483 4.077-0.546 7.297-2.377 9.416-0.906 1.048-1.976 1.807-3.101 2.314-0.12 0.054-0.242 0.102-0.363 0.15-0.356 0.142-0.715 0.267-1.077 0.36l1.727 5.183 1.141 3.422c0.948-0.45 1.844-1.001 2.679-1.656l0.803-2.408 0.082-0.246 2.041-6.125 1.588 2.861c0.636-1.436 1.128-3.055 1.443-4.869 0.167-0.648 0.289-1.405 0.356-2.373 0.008-0.116-0.008-0.23-0.032-0.344 0.021-0.291 0.045-0.577 0.057-0.877-0.09-0.435-0.318-0.813-0.633-1.092-0.004 0.003-0.007 0.006-0.011 0.008l-4.752-4.812zm-17.731 9.601l4.547 13.645c0.397 0.061 0.804 0.094 1.211 0.127l2.004-6.01-7.762-7.762zm2.639 1.02l5.535 5.504 0.844-2.532c-2.333 0.093-4.529-1.122-6.379-2.972zm17.793 11.375l-5.256 15.771 4.34 3.03c0.689-0.43 1.293-0.92 1.808-1.48l1.836-5.5c-0.054-4.427-1.416-8.594-2.728-11.821zm-10.258 0.773l-4.979 14.978 4.979 5.02 3.334-10-3.334-9.998zm-9.826 0.524l-3.697 13.314-1.678-0.17s-0.423-0.07-1.024-0.26c0.113 0.39 0.245 0.77 0.422 1.14 1.754 3.64 5.602 4.12 5.602 4.12l1.678 0.17 2.181-7.86-3.484-10.454zm-11.66 1.982c-0.1216 0.093-0.1219 0.048-0.2442 0.149-1.7367 1.427-3.2695 3.376-3.2695 6.023 0 2.99 0.8976 4.84 2.3027 6.39 0.9282 1.02 2.1373 1.88 3.4673 2.66-0.486-1.1-0.77-2.4-0.77-4.05 0-0.85 0.169-1.62 0.439-2.33-0.465-0.49-0.895-1.08-1.242-1.8-1.0709-2.23-0.8564-4.767-0.6833-7.042z"/>
	</g>
</svg>
