<?xml version="1.0" encoding="UTF-8" standalone="no"?>
<svg xmlns:rdf="http://www.w3.org/1999/02/22-rdf-syntax-ns#" xmlns="http://www.w3.org/2000/svg" height="120" width="50" version="1.1" xmlns:cc="http://creativecommons.org/ns#" xmlns:xlink="http://www.w3.org/1999/xlink" viewBox="0 0 50 120" xmlns:dc="http://purl.org/dc/elements/1.1/">
	<metadata>
		<rdf:RDF>
			<cc:Work rdf:about="">
				<dc:format>image/svg+xml</dc:format>
				<dc:type rdf:resource="http://purl.org/dc/dcmitype/StillImage"/>
				<dc:title>Femur Badge</dc:title>
				<dc:date>2017-06-07</dc:date>
				<dc:creator>
					<cc:Agent>
						<dc:title>Raymond Dodge</dc:title>
					</cc:Agent>
				</dc:creator>
				<dc:identifier>tag:rayrobdod.name,2017-06-07:femurBadge</dc:identifier>
				<dc:subject>
					<rdf:Bag>
						<rdf:li>Twitch Plays Pokémon</rdf:li>
					</rdf:Bag>
				</dc:subject>
				<dc:description>A Ground-type badge based on the Quake Badge; based on the randomization in Twitch Plays Pokémon Randomized White 2</dc:description>
			</cc:Work>
		</rdf:RDF>
	</metadata>
	<defs>
		<radialGradient id="radialGradient4340" gradientUnits="userSpaceOnUse" cy="79.721" cx="-5.151" gradientTransform="matrix(0 4.3003 -2.2362 0 193.42 39.389)" r="12.414">
			<stop stop-color="#eceeca" offset="0"/>
			<stop stop-color="#eceeca" offset=".66"/>
			<stop stop-color="#d0cd98" offset="1"/>
		</radialGradient>
		<linearGradient id="linearGradient4367" y2="120" gradientUnits="userSpaceOnUse" x2="10" x1="35">
			<stop stop-color="#e8b844" offset="0"/>
			<stop stop-color="#e8b844" offset=".18"/>
			<stop stop-color="#f3ee9d" offset=".23"/>
			<stop stop-color="#e8b844" offset=".3"/>
			<stop stop-color="#e8b844" offset=".55"/>
			<stop stop-color="#f3ee9d" offset="1"/>
		</linearGradient>
	</defs>
	<title>Femur Badge</title>
	<path fill="#59530b" d="m15 2c-6.6037 0-12 5.3963-12 12 0.0005527 5.0991 3.3163 9.4311 8 11.127v52.701l7-7v24.055c-4.6801 1.6943-7.9945 6.0203-8 11.115 0 6.6037 5.3963 12 12 12h0.002c2.7583-0.003 5.3847-0.99129 7.5-2.6992 2.1142 1.7073 4.7371 2.6951 7.4941 2.6992h0.002 0.002c6.6037 0 12-5.3963 12-12-0.000553-5.0991-3.3163-9.4311-8-11.127v-52.701l-3.414 3.414-3.586 3.586v-24.055c4.6801-1.6943 7.9945-6.0203 8-11.115v-0.002c0-6.6037-5.396-12-12-12h-0.002c-2.758 0.003-5.385 0.9913-7.5 2.6992-2.114-1.7073-4.737-2.6951-7.494-2.6992h-0.002z"/>
	<path d="m14 4a10 10 0 0 0 -10 10 10 10 0 0 0 8 9.797v49.203l19-19v-30.213a10 10 0 0 0 8 -9.787 10 10 0 0 0 -10 -10 10 10 0 0 0 -7.502 3.4004 10 10 0 0 0 -7.498 -3.4004zm24 43-19 19v30.213a10 10 0 0 0 -8 9.787 10 10 0 0 0 10 10 10 10 0 0 0 7.502 -3.4 10 10 0 0 0 7.498 3.4 10 10 0 0 0 10 -10 10 10 0 0 0 -8 -9.797v-49.203z" stroke="url(#linearGradient4367)" stroke-width="4px" fill="url(#radialGradient4340)"/>
	<path fill-opacity=".33" fill="#1a1828" d="m13.996 6c-4.1625 0.002-7.5481 3.1279-7.955 7.178-0.0271 0.27-0.041 0.544-0.041 0.822 0 0.23 0.0103 0.458 0.0293 0.684 0.0064 0.075 0.0189 0.149 0.0273 0.224 0.0152 0.135 0.031 0.268 0.0528 0.401 0.0619 0.376 0.1547 0.743 0.2676 1.101 0.0145 0.046 0.0276 0.093 0.0429 0.139 0.1177 0.35 0.2585 0.69 0.4219 1.017 0.0222 0.045 0.0454 0.089 0.0684 0.133 0.1739 0.333 0.3677 0.655 0.5859 0.959 0.0117 0.017 0.0233 0.033 0.0351 0.049 0.9535 1.307 2.2998 2.319 3.8948 2.859-0.273-0.809-0.426-1.671-0.426-2.566 0-4.441 3.556-7.998 7.996-8h0.004c2.297 0.005 4.48 0.995 5.996 2.721l1.502 1.711 1.502-1.711c1.517-1.727 3.701-2.718 6-2.721 0.903 0 1.767 0.154 2.574 0.426-0.261-0.778-0.641-1.5001-1.113-2.1487-0.018-0.0241-0.035-0.0483-0.053-0.0722-0.46-0.6168-1.009-1.1611-1.625-1.6211-0.042-0.0311-0.082-0.0635-0.125-0.0938-0.301-0.2161-0.618-0.411-0.949-0.584-0.04-0.021-0.082-0.0402-0.123-0.0605-0.308-0.1538-0.628-0.2867-0.957-0.4004-0.058-0.0199-0.113-0.0438-0.172-0.0625-0.083-0.0267-0.169-0.0482-0.254-0.0723-0.148-0.0418-0.298-0.0798-0.449-0.1132-0.089-0.0198-0.179-0.038-0.27-0.0547-0.167-0.0311-0.336-0.0576-0.507-0.0781-0.073-0.0088-0.146-0.0206-0.219-0.0274-0.25-0.0231-0.502-0.0371-0.758-0.0371-0.287 0.0004-0.573 0.0161-0.855 0.0469-0.283 0.0307-0.562 0.0766-0.838 0.1367-0.828 0.1804-1.621 0.4907-2.348 0.918-0.242 0.1424-0.478 0.2989-0.705 0.4668s-0.445 0.3466-0.654 0.539c-0.21 0.1924-0.41 0.3974-0.6 0.6133l-1.502 1.7113-1.502-1.7113c-1.516-1.7258-3.699-2.7161-5.996-2.7207h-0.004zm0.004 16.225v45.947l3-3 2-2v-36.008l-5-4.939zm22 29.603l-3 3-12 12v31.018l-1.6 0.326c-3.499 0.714-6.058 3.618-6.369 7.118-0.02 0.24-0.031 0.47-0.031 0.71 0 0.26 0.014 0.51 0.037 0.76 0.007 0.07 0.019 0.15 0.027 0.22 0.021 0.17 0.047 0.34 0.079 0.51 0.016 0.09 0.033 0.18 0.052 0.26 0.034 0.16 0.075 0.31 0.117 0.46 0.024 0.08 0.045 0.17 0.071 0.25 0.018 0.05 0.041 0.11 0.06 0.16 0.115 0.34 0.251 0.66 0.407 0.97 0.019 0.04 0.034 0.08 0.054 0.12 0.173 0.33 0.369 0.64 0.584 0.94 0.032 0.05 0.067 0.09 0.1 0.14 0.459 0.61 1.002 1.16 1.617 1.62 0.024 0.02 0.048 0.03 0.072 0.05 0.646 0.47 1.365 0.85 2.139 1.11h0.008c-0.272-0.8-0.424-1.67-0.424-2.57 0.005-3.81 2.668-7.07 6.4-7.83l1.6-0.32v-31.022l10-10v-10zm0.029 46.014l4.971 4.998 1.6 0.32c0.335 0.07 0.657 0.17 0.974 0.27-0.001 0-0.001 0-0.002-0.01-0.892-2.63-3.116-4.675-5.972-5.258l-1.571-0.32z"/>
</svg>
