<?xml version="1.0" encoding="UTF-8" standalone="no"?>
<svg xmlns:rdf="http://www.w3.org/1999/02/22-rdf-syntax-ns#" xmlns="http://www.w3.org/2000/svg" height="120" width="50" version="1.1" xmlns:cc="http://creativecommons.org/ns#" xmlns:xlink="http://www.w3.org/1999/xlink" viewBox="0 0 50 120" xmlns:dc="http://purl.org/dc/elements/1.1/">
	<metadata>
		<rdf:RDF>
			<cc:Work rdf:about="">
				<dc:format>image/svg+xml</dc:format>
				<dc:type rdf:resource="http://purl.org/dc/dcmitype/StillImage"/>
				<dc:title>Lily Badge</dc:title>
				<dc:date>2017-06-10</dc:date>
				<dc:creator>
					<cc:Agent>
						<dc:title>Raymond Dodge</dc:title>
					</cc:Agent>
				</dc:creator>
				<dc:identifier>tag:rayrobdod.name,2017-06-10:lilyBadge</dc:identifier>
				<dc:subject>
					<rdf:Bag>
						<rdf:li>Twitch Plays Pokémon</rdf:li>
					</rdf:Bag>
				</dc:subject>
				<dc:description>A Grass-type badge based on the Wave Badge; based on the randomization in Twitch Plays Pokémon Randomized White 2</dc:description>
			</cc:Work>
		</rdf:RDF>
	</metadata>
	<defs>
		<linearGradient id="inner-shine">
			<stop stop-color="#13c929" offset="0"/>
			<stop stop-color="#15db2d" offset=".28"/>
			<stop stop-color="#1ee61e" offset=".29592"/>
			<stop stop-color="#1ee61e" offset=".51235"/>
			<stop stop-color="#33e548" offset=".52650"/>
			<stop stop-color="#33e548" offset=".79962"/>
			<stop stop-color="#6be989" offset="1"/>
		</linearGradient>
		<linearGradient id="gold-shine">
			<stop stop-color="#e8b844" offset="0"/>
			<stop stop-color="#e8b844" offset=".38"/>
			<stop stop-color="#f3ee9d" offset=".43"/>
			<stop stop-color="#e8b844" offset=".48"/>
			<stop stop-color="#e8b844" offset=".63"/>
			<stop stop-color="#f3ee9d" offset="1"/>
		</linearGradient>
		<linearGradient id="linearGradient4323" y2="120" xlink:href="#gold-shine" gradientUnits="userSpaceOnUse" x2="10" x1="35"/>
		<linearGradient id="linearGradient4475" y2="46.54" xlink:href="#inner-shine" gradientUnits="userSpaceOnUse" x2="2.6716" y1="109" x1="43.642"/>
		<linearGradient id="linearGradient4489" y2="47.212" xlink:href="#inner-shine" gradientUnits="userSpaceOnUse" x2="43.418" y1="106.99" x1="6.9254"/>
		<filter id="filter5077" style="color-interpolation-filters:sRGB" height="1.0345" width="1.0789" y="-.017244" x="-.039462">
			<feGaussianBlur stdDeviation="0.4275"/>
		</filter>
	</defs>
	<title>Lily Badge</title>
	<g>
		<g>
			<path d="m25 8c14 40 21 62.667 21 76 0 21.333-7 32-21 32s-21-10.67-21-32c0-13.333 7-36 21-76z" transform="translate(1)" stroke="#59530b" stroke-width="4" fill="#59530b"/>
			<path fill="url(#linearGradient4489)" d="m25 116c-14 0-21-10.67-21-32 0-13.333 7-36 21-76"/>
			<path fill="url(#linearGradient4475)" d="m25 8c14 40 21 62.667 21 76 0 21.333-7 32-21 32"/>
		</g>
		<g stroke-opacity=".78431" filter="url(#filter5077)" stroke="#d8f8d4" stroke-width="1.5px">
			<path d="m20 102.5-7.5-5"/>
			<path d="m30 102.5 7.5-5"/>
			<path d="m20 82-6-4"/>
			<path d="m30 82 6-4"/>
			<path d="m21 63-4.5-3"/>
			<path d="m29 63 4.5-3"/>
			<path d="m22 45-3-2"/>
			<path d="m28 45 3-2"/>
		</g>
		<g stroke="url(#linearGradient4323)" stroke-width="4">
			<line y2="35" x2="25" y1="116" x1="25"/>
			<line y2="85" x2="40" y1="95" x1="25"/>
			<line y2="85" x2="10" y1="95" x1="25"/>
			<line y2="66.25" x2="37.5" y1="75" x1="25"/>
			<line y2="66.25" x2="12.5" y1="75" x1="25"/>
			<line y2="50" x2="35" y1="55" x1="25"/>
			<line y2="50" x2="15" y1="55" x1="25"/>
		</g>
		<path style="color-rendering:auto;text-decoration-color:#000000;color:#000000;isolation:auto;mix-blend-mode:normal;shape-rendering:auto;solid-color:#000000;block-progression:tb;text-decoration-line:none;image-rendering:auto;white-space:normal;text-indent:0;text-transform:none;text-decoration-style:solid" d="m25 1.9453-1.889 5.3945c-14.009 40.026-21.111 62.627-21.111 76.66 0 10.885 1.7426 19.25 5.5781 25.1 3.8359 5.84 9.9139 8.9 17.422 8.9 7.5079 0 13.586-3.0577 17.422-8.9023 3.835-5.85 5.578-14.215 5.578-25.1 0-14.033-7.102-36.634-21.111-76.66l-1.889-5.3947zm0 12.248c12.578 36.249 19 57.824 19 69.807 0 10.448-1.757 18.08-4.922 22.9-3.164 4.82-7.586 7.1-14.078 7.1s-10.914-2.28-14.078-7.1c-3.1646-4.82-4.922-12.452-4.922-22.9 0-11.983 6.422-33.558 19-69.807z" fill="url(#linearGradient4323)"/>
		<path d="m25 14.193c-12.578 36.249-19 57.824-19 69.807 0 10.448 1.7574 18.08 4.9219 22.902 0.22344 0.34048 0.4548 0.6641 0.69141 0.97852 0.03787 0.0504 0.07507 0.10068 0.11328 0.15039 0.0359 0.0467 0.07318 0.0925 0.10938 0.13867 0.03977 0.0508 0.079 0.1022 0.11914 0.15235 0.0437 0.0545 0.08867 0.10645 0.13281 0.16015 0.08123 0.0985 0.16337 0.19523 0.24609 0.29102 0.08478 0.0982 0.17144 0.1937 0.25781 0.28906 0.06776 0.0749 0.13437 0.1515 0.20312 0.22461 0.10048 0.10717 0.20206 0.21302 0.30469 0.31641 0.05836 0.0587 0.11672 0.11832 0.17578 0.17578 0.0093 0.009 0.01803 0.0183 0.02734 0.0273 0.0867 0.0839 0.17545 0.16479 0.26367 0.24609 0.01409 0.013 0.02688 0.0281 0.04102 0.041 0.02001 0.0183 0.04046 0.0365 0.06055 0.0547 0.01258 0.0114 0.0245 0.0238 0.03711 0.0352 0.08882 0.0797 0.17917 0.15722 0.26953 0.23438 0.08376 0.0717 0.1688 0.1415 0.25391 0.21094 0.15008 0.12225 0.30272 0.24005 0.45703 0.35547 0.02212 0.0166 0.04224 0.0363 0.06445 0.0527-0.0031-0.004-0.0067-0.008-0.0098-0.0117 0.15179 0.11237 0.30305 0.22424 0.45898 0.33008 0.03801 0.0258 0.07307 0.0566 0.11133 0.082-0.0051-0.007-0.01046-0.0143-0.01563-0.0215 0.17889 0.11928 0.35855 0.23875 0.54297 0.3496-3.7561-8.1545-4.7936-16.081-4.8301-23.023 2.1393 1.5132-0.33963-0.43944-1.1172-1.0781l4 4 9.109 6.073v-1.666l-14.109-9.406 0.12695-0.18945v-0.002l1.1328-1.6992 0.95898-1.4375 0.26172 0.17578c0.44253-3.7131 1.3074-8.1107 2.5605-13.219l-0.57812-0.4043 3 3 6.646 4.652v-0.30078-0.29883-0.30078-0.29883-0.30078l-11.646-8.1524 2.293-3.2773 1.4766 1.0332c0.85592-3.1902 1.8542-6.6542 2.9727-10.359l-1.9902-1.4961 3 3 3.893 1.947v-2.5c-2.932-1.4688-6.0725-3.0341-8.8945-4.4473l1.7891-3.5781 0.40039 0.19922 3.4082 1.7051 3.296-10.252v-4.015-0.848h0.28125 1.332c1.1689-3.4896 2.4262-7.1829 3.7441-11.014-0.2163-0.6354-0.4545-1.3212-0.67188-1.959-0.22075-0.64564-0.45316-1.318-0.67188-1.959-0.22471-0.65457-0.45143-1.3148-0.66992-1.9551-0.0002-0.000584 0.0002-0.0014 0-0.002-0.229-0.666-0.452-1.318-0.671-1.959-0.234-0.676-0.434-1.271-0.672-1.959zm2 37.57 5-2.5v-9.263l-5-5zm8.8945 0.02539l-8.894 4.448v0.02734 14.895l5-3.5v-6.4219l7.0742-3.5371-1.9687-6.4882-3-3zm2.752 16.101-11.646 8.152v15.223l5-3.334v-6.889l10.854-7.598-0.467-2.353-6.033-6.479zm2.463 18.775-14.109 9.406v17.85c1.734-0.11193 3.3871-0.53399 5-1.0961v-11.75l11.412-7.6074 0.46674-5.1192-4.988-5.008z" fill-opacity=".32941" fill="#1a1828"/>
	</g>
</svg>
