<?xml version="1.0" encoding="UTF-8" standalone="no"?>
<svg xmlns:rdf="http://www.w3.org/1999/02/22-rdf-syntax-ns#" xmlns="http://www.w3.org/2000/svg" height="120" width="50" version="1.1" xmlns:cc="http://creativecommons.org/ns#" xmlns:xlink="http://www.w3.org/1999/xlink" viewBox="0 0 50 120" xmlns:dc="http://purl.org/dc/elements/1.1/">
	<metadata>
		<rdf:RDF>
			<cc:Work rdf:about="">
				<dc:format>image/svg+xml</dc:format>
				<dc:type rdf:resource="http://purl.org/dc/dcmitype/StillImage"/>
				<dc:title>Thought Badge</dc:title>
				<dc:date>2017-06-11</dc:date>
				<dc:creator>
					<cc:Agent>
						<dc:title>Raymond Dodge</dc:title>
					</cc:Agent>
				</dc:creator>
				<dc:identifier>tag:rayrobdod.name,2017-06-11:thoughtbadge</dc:identifier>
				<dc:subject>
					<rdf:Bag>
						<rdf:li>Twitch Plays Pokémon</rdf:li>
					</rdf:Bag>
				</dc:subject>
				<dc:description>A Psychic-type badge based on the Toxic Badge; based on the randomization in Twitch Plays Pokémon Randomized White 2</dc:description>
			</cc:Work>
		</rdf:RDF>
	</metadata>
	<defs>
		<linearGradient id="inner-shine">
			<stop stop-color="#ffb9e1" offset="0"/>
			<stop stop-color="#ffb9ea" offset=".4"/>
			<stop stop-color="#f898cf" offset=".65"/>
			<stop stop-color="#f898cf" offset="1"/>
		</linearGradient>
		<linearGradient id="gold-shine">
			<stop stop-color="#e8b844" offset="0"/>
			<stop stop-color="#e8b844" offset="0.33"/>
			<stop stop-color="#f3ee9d" offset=".38"/>
			<stop stop-color="#e8b844" offset="0.46"/>
			<stop stop-color="#e8b844" offset="0.8"/>
			<stop stop-color="#f3ee9d" offset="1"/>
		</linearGradient>
		<linearGradient id="linearGradient4203" y2="120" xlink:href="#gold-shine" gradientUnits="userSpaceOnUse" x2="10" x1="35"/>
		<radialGradient id="radialGradient4307" xlink:href="#inner-shine" gradientUnits="userSpaceOnUse" cy="49.836" cx="30.09" gradientTransform="matrix(1 0 0 .85075 0 7.4382)" r="12"/>
		<radialGradient id="radialGradient4315" xlink:href="#inner-shine" gradientUnits="userSpaceOnUse" cy="105.3" cx="25.985" gradientTransform="matrix(1 0 0 .82587 0 18.336)" r="9"/>
		<radialGradient id="radialGradient4317" xlink:href="#inner-shine" gradientUnits="userSpaceOnUse" cy="88.739" cx="28.866" gradientTransform="matrix(1 0 0 .80970 0 16.887)" r="10"/>
		<radialGradient id="radialGradient4319" xlink:href="#inner-shine" gradientUnits="userSpaceOnUse" cy="69.843" cx="31.978" gradientTransform="matrix(.99992 -.012776 .010176 .79647 -.70814 14.624)" r="11"/>
		<radialGradient id="radialGradient5026" xlink:href="#inner-shine" gradientUnits="userSpaceOnUse" cy="16.153" cx="16.444" gradientTransform="matrix(0 1.0105 -1.3168 0 37.428 -2.5953)" r="24"/>
	</defs>
	<title>Thought Badge</title>
	<g stroke-width="4px" fill="#f00">
		<path d="m25.799 2c-4.939 0.0066-9.275 2.9045-11.459 7.2305-0.514-0.0738-1.016-0.2301-1.537-0.2305h-0.002c-6.0514 0-11 4.949-11 11v0.002 0.002c0.0035 2.1765 0.80547 4.2039 2 5.9961-1.1945 1.7922-1.9965 3.8195-2 5.9961v0.002 0.002c0 6.0514 4.9486 11 11 11h0.0039 0.002c0.51845-0.0017 1.0176-0.15802 1.5293-0.23242 1.9396 3.8433 5.5789 6.5553 9.8301 7.1191-1.4787 1.995-2.3652 4.4519-2.3652 7.1133 0 4.7184 2.7603 8.808 6.7422 10.766-2.2871 2.0193-3.7422 4.9611-3.7422 8.2344 0 3.5425 1.7021 6.6978 4.3223 8.7129-3.6921 1.4741-6.3223 5.0859-6.3223 9.2871 0 2.9345 1.2892 5.5764 3.3203 7.4102-3.6507 1.1484-6.3203 4.5748-6.3203 8.5898 0 4.9469 4.0531 9 9 9s9-4.0531 9-9c0-2.4492-0.99792-4.6771-2.6016-6.3047 4.3489-1.0834 7.6016-5.0238 7.6016-9.6953 0-3.025-1.3689-5.7422-3.5098-7.5801 4.352-1.469 7.51-5.589 7.51-10.42 0-4.0951-2.2708-7.679-5.6113-9.5723 2.799-2.201 4.611-5.609 4.611-9.428 0-5.952-4.3894-10.909-10.09-11.832 0.59284-0.73624 1.1162-1.5376 1.5508-2.3984 0.51438 0.07381 1.016 0.23012 1.5371 0.23047h0.002c6.0514 0 11-4.9486 11-11v-0.002-0.002c-0.0035-2.1765-0.80547-4.2039-2-5.9961 1.1945-1.7922 1.9965-3.8195 2-5.9961v-0.002-0.002c0-6.0514-4.9486-11-11-11h-0.0039-0.002c-0.518 0.0017-1.017 0.158-1.529 0.2324-2.184-4.3274-6.522-7.2266-11.463-7.2324h-0.002-0.002z" fill="#59530b"/>
		<g stroke="url(#linearGradient4203)">
			<path d="m25 4a11 11 0 0 0 -10.377 7.393 9 9 0 0 0 -2.623 -0.393 9 9 0 0 0 -9 9 9 9 0 0 0 2.3047 6 9 9 0 0 0 -2.3047 6 9 9 0 0 0 9 9 9 9 0 0 0 2.619 -0.398 11 11 0 0 0 10.381 7.398 11 11 0 0 0 10.377 -7.393 9 9 0 0 0 2.623 0.393 9 9 0 0 0 9 -9 9 9 0 0 0 -2.3047 -6 9 9 0 0 0 2.3047 -6 9 9 0 0 0 -9 -9 9 9 0 0 0 -2.6191 0.39844 11 11 0 0 0 -10.381 -7.398z" trasform="translate(0,1)" fill="url(#radialGradient5026)"/>
			<circle cy="57" cx="33" r="10" fill="url(#radialGradient4307)"/>
			<circle cy="76" cx="35" r="9" fill="url(#radialGradient4319)"/>
			<circle cy="94" cx="32" r="8" fill="url(#radialGradient4317)"/>
			<circle cy="110" cx="28" r="7" fill="url(#radialGradient4315)"/>
		</g>
		<path d="m31.951 23.199c-0.285 0.005-0.566 0.026-0.844 0.065-2.219 0.306-4.101 1.433-5.851 2.433s-3.368 1.873-4.774 2.067c-1.405 0.194-2.665-0.068-4.421-1.825a1.5002 1.5002 0 1 0 -2.122 2.122c0.245 0.245 0.494 0.464 0.745 0.673a1.5002 1.5002 0 0 0 0.255 0.327c2.244 2.243 4.734 2.981 6.954 2.675 2.219-0.306 4.101-1.433 5.851-2.433s3.368-1.873 4.774-2.067c1.405-0.194 2.665 0.068 4.421 1.825a1.5002 1.5002 0 1 0 2.122 -2.122c-0.245-0.245-0.494-0.464-0.745-0.673a1.5002 1.5002 0 0 0 -0.255 -0.327c-1.963-1.962-4.116-2.773-6.11-2.74z" fill-opacity=".25098" fill="#1a1828"/>
		<path d="m14 26c8 8 14-8 22 0" stroke="#e8b844" stroke-linecap="round" stroke-width="3px" fill="none"/>
		<path fill-opacity=".25" fill="#1a1828" d="m24.998 6c-0.24 0.0004-0.477 0.0103-0.713 0.0293-3.537 0.2847-6.594 2.6236-7.773 6.0197l-0.631 1.818-1.842-0.562c-0.661-0.202-1.35-0.305-2.041-0.305-2.9155 0.001-5.3937 1.75-6.4511 4.264-0.1763 0.419-0.3115 0.859-0.4043 1.316s-0.1423 0.93-0.1426 1.416v0.002 0.002c0.0037 1.722 0.6419 3.383 1.793 4.664l1.1992 1.336-1.1992 1.336c-1.0072 1.121-1.6214 2.532-1.7618 4.021-0.02 0.213-0.0307 0.428-0.0312 0.643v0.002 0.002c0.0001 0.232 0.0134 0.46 0.0352 0.685 0.0048 0.05 0.0136 0.099 0.0195 0.149 0.0175 0.149 0.0398 0.296 0.0664 0.441 0.0615 0.337 0.1484 0.665 0.2559 0.983 0.0188 0.056 0.0383 0.111 0.0585 0.166 0.1205 0.328 0.2579 0.647 0.4239 0.949 0.001 0.002 0.0009 0.004 0.0019 0.006 0.1751 0.318 0.3787 0.619 0.5996 0.904 0.0134 0.017 0.0256 0.036 0.0391 0.053 0.2201 0.278 0.4611 0.54 0.7207 0.781 0.0222 0.021 0.0458 0.04 0.0684 0.061 0.8244 0.746 1.827 1.301 2.9429 1.588-0.145-0.565-0.232-1.154-0.232-1.766v-0.002-0.002c0.004-1.722 0.642-3.383 1.793-4.664l0.771-0.859a1.5002 1.5002 0 0 1 -0.009 -0.965l-0.762-0.848c-1.151-1.281-1.789-2.942-1.793-4.664v-0.002-0.002c0.002-3.887 3.111-6.995 6.998-6.996 0.691 0 1.38 0.103 2.041 0.305l1.842 0.562 0.631-1.818c1.257-3.622 4.652-6.042 8.486-6.049h0.004c1.166 0.002 2.291 0.23 3.328 0.645-0.085-0.213-0.177-0.421-0.277-0.624-0.098-0.199-0.203-0.393-0.315-0.583-0.002-0.004-0.004-0.007-0.006-0.01-0.001-0.002-0.003-0.003-0.003-0.004-0.226-0.383-0.477-0.7471-0.752-1.0881-0.002-0.0018-0.003-0.004-0.004-0.0058-0.002-0.0022-0.004-0.0037-0.006-0.0059-0.271-0.3339-0.566-0.6456-0.879-0.9355-0.016-0.0151-0.033-0.0301-0.049-0.0449-0.305-0.2785-0.629-0.5342-0.969-0.7676-0.027-0.0186-0.054-0.0364-0.082-0.0547-0.341-0.229-0.699-0.4367-1.07-0.6172-0.019-0.0094-0.039-0.0181-0.059-0.0273-0.371-0.1776-0.756-0.3296-1.152-0.4551-0.117-0.0371-0.236-0.0693-0.355-0.1016-0.1-0.0271-0.199-0.0564-0.299-0.0801-0.103-0.024-0.207-0.0419-0.311-0.0625-0.119-0.0236-0.237-0.0495-0.357-0.0683-0.136-0.0213-0.275-0.0338-0.412-0.0489-0.087-0.0094-0.171-0.0242-0.258-0.0312-0.009-0.0007-0.017-0.0013-0.026-0.002-0.227-0.0175-0.456-0.0269-0.687-0.0273h-0.004zm13.002 7c-0.44 0.002-1.489 0.219-2.436 0.436l-1.228 0.378 4.154 3.239 0.633 1.826 1.846-0.568c0.658-0.203 1.342-0.308 2.031-0.311 0.613 0 1.204 0.085 1.77 0.23-0.288-1.116-0.843-2.119-1.59-2.943-0.021-0.022-0.04-0.046-0.061-0.068-0.239-0.257-0.498-0.497-0.773-0.715-0.023-0.018-0.047-0.035-0.071-0.053-0.283-0.219-0.582-0.418-0.898-0.592-0.305-0.167-0.628-0.306-0.959-0.427-0.052-0.019-0.104-0.039-0.156-0.057-0.325-0.11-0.661-0.196-1.006-0.258-0.109-0.019-0.22-0.036-0.33-0.051-0.088-0.011-0.175-0.025-0.264-0.033-0.218-0.02-0.438-0.033-0.662-0.033zm-22.047 25.189c-0.01 0.029-0.011 0.067-0.019 0.098l0.576 1.66c0.874 2.522 2.783 4.458 5.156 5.407 0.001 0 0.003 0.001 0.004 0.001-0.054-0.135-0.112-0.269-0.16-0.408l-0.633-1.826-4.924-4.932zm17.047 10.811c-4.442 0-8 3.558-8 8 0 3.539 2.261 6.51 5.426 7.574-0.272-0.807-0.426-1.671-0.426-2.574 0-4.442 3.558-8 8-8 0.903 0 1.767 0.154 2.574 0.426-1.064-3.165-4.035-5.426-7.574-5.426zm2 20c-3.89 0-7 3.11-7 7 0 3.276 2.21 5.992 5.23 6.77-0.145-0.566-0.23-1.157-0.23-1.77 0-3.89 3.11-7 7-7 0.613 0 1.204 0.085 1.77 0.23-0.778-3.02-3.494-5.23-6.77-5.23zm-3 19c-3.337 0-6 2.663-6 6 0 3.022 2.185 5.484 5.076 5.924-0.046-0.302-0.076-0.609-0.076-0.924 0-3.337 2.663-6 6-6 0.315 0 0.622 0.03 0.924 0.076-0.44-2.891-2.902-5.076-5.924-5.076zm-4 17c-2.785 0-5 2.21-5 5s2.215 5 5 5c0-2.79 2.215-5 5-5 0-2.79-2.215-5-5-5z"/>
	</g>
</svg>
