<?xml version="1.0" encoding="UTF-8" standalone="no"?>
<svg xmlns:rdf="http://www.w3.org/1999/02/22-rdf-syntax-ns#" xmlns="http://www.w3.org/2000/svg" height="120" width="50" version="1.1" xmlns:cc="http://creativecommons.org/ns#" xmlns:xlink="http://www.w3.org/1999/xlink" viewBox="0 0 50 120" xmlns:dc="http://purl.org/dc/elements/1.1/">
	<metadata>
		<rdf:RDF>
			<cc:Work rdf:about="">
				<dc:format>image/svg+xml</dc:format>
				<dc:type rdf:resource="http://purl.org/dc/dcmitype/StillImage"/>
				<dc:title>Torch Badge</dc:title>
				<dc:date>2017-06-09</dc:date>
				<dc:creator>
					<cc:Agent>
						<dc:title>Raymond Dodge</dc:title>
					</cc:Agent>
				</dc:creator>
				<dc:identifier>tag:rayrobdod.name,2017-06-11:torchBadge</dc:identifier>
				<dc:subject>
					<rdf:Bag>
						<rdf:li>Twitch Plays Pokémon</rdf:li>
					</rdf:Bag>
				</dc:subject>
				<dc:description>A Fire-type badge based on the Legend Badge; based on the randomization in Twitch Plays Pokémon Randomized White 2</dc:description>
			</cc:Work>
		</rdf:RDF>
	</metadata>
	<defs>
		<linearGradient id="gold-shine">
			<stop stop-color="#e8b844" offset="0"/>
			<stop stop-color="#e8b844" offset=".14"/>
			<stop stop-color="#f3ee9d" offset=".19"/>
			<stop stop-color="#e8b844" offset=".24"/>
			<stop stop-color="#e8b844" offset=".55"/>
			<stop stop-color="#f3ee9d" offset="1"/>
		</linearGradient>
		<radialGradient id="radialGradient4303" gradientUnits="userSpaceOnUse" cy="7.0248" cx="23.156" gradientTransform="matrix(.91278 0 0 .91828 2.7517 46.975)" r="23.001">
			<stop stop-color="#eda667" offset="0"/>
			<stop stop-color="#eda667" offset="0.66"/>
			<stop stop-color="#e46520" offset="1"/>
		</radialGradient>
		<linearGradient id="linearGradient4323" y2="120" xlink:href="#gold-shine" gradientUnits="userSpaceOnUse" x2="10" x1="35"/>
		<linearGradient id="linearGradient4198" y2="59.172" gradientUnits="userSpaceOnUse" x2="22.1" y1="37.425" x1="28.072">
			<stop stop-color="#15cfc4" offset="0"/>
			<stop stop-color="#4ef2d5" offset=".5"/>
			<stop stop-color="#17ced9" offset="1"/>
		</linearGradient>
	</defs>
	<title>Torch Badge</title>
	<g>
		<path style="color-rendering:auto;text-decoration-color:#000000;color:#000000;isolation:auto;mix-blend-mode:normal;shape-rendering:auto;solid-color:#000000;block-progression:tb;text-decoration-line:none;text-decoration-style:solid;image-rendering:auto;white-space:normal;text-indent:0;text-transform:none" d="m20.77 0.98438-5.401 20.62-3.672-12.237-2.3591 3.52s-6.3379 9.566-6.3379 26.113c0 11.58 4.1887 19.81 11.934 24.691 0.90241 0.56872 1.8661 1.048 2.8652 1.457l8.201 52.852 8.201-52.852c0.99911-0.409 1.9628-0.88831 2.8652-1.457 7.745-4.881 11.934-13.111 11.934-24.691 0-16.547-6.338-26.113-6.338-26.113l-2.359-3.5198-3.672 12.237-5.401-20.62-5.23 15.694-5.23-15.694z" fill="#59530b"/>
		<path d="m25 118-9-58h18z" fill="url(#linearGradient4323)"/>
		<path d="m35 62c7.1897-4.5311 11-11.877 11-23 0-16.049-6-25-6-25l-4.5 15-5.5-21-5 15-5-15-5.5 21-4.5-15s-6 8.9514-6 25c0 11.123 3.8103 18.469 11 23 5.64 3.5545 14.36 3.5545 20 0z" stroke="url(#linearGradient4323)" stroke-miterlimit="8" stroke-width="4" fill="url(#radialGradient4303)"/>
		<g fill-opacity="0.33" fill="#1a1828">
			<path d="m21 47 0.92188-2.8789-3.9119-4.0995z"/>
			<path d="m25 34.5 4 12.5 1.947-4.541z"/>
			<path d="m32 40 0.80664 1.4531c0.22653 0.43447 0.48541 0.9708 0.75586 1.5664v0.002c2.2834 5.5299 3.9454 11.986 0.31445 17.318 0.01811-0.01127 0.03862-0.01989 0.05664-0.03125 0.37773-0.23805 0.74268-0.48509 1.0996-0.73828 0.09929-0.07106 0.19711-0.14407 0.29492-0.2168 0.17368-0.12742 0.3412-0.25933 0.50977-0.39062 1.519-1.2061 2.8553-2.613 4.0156-4.1738 0.000828-0.0012 0.0011-0.0027 0.002-0.0039-0.000157-0.0013 0.000157-0.0026 0-0.0039 0.22218-0.3156 0.43399-0.64097 0.63867-0.97266 0.0054-0.0088 0.01218-0.01661 0.01758-0.02539-1.064-4.885-3.512-8.782-3.512-8.782z"/>
		</g>
		<path d="m25 34.5-4 12.5-3-7s-4 5.3821-4 13c0.03419 2.8029 0.52997 5.1334 1.5332 6.9512 0.17819 0.11889 0.35013 0.24205 0.5332 0.35742 4.8353 3.0473 12.951 3.056 17.811 0.03125 1.42-2.024 2.118-4.599 2.123-7.339 0-6.658-4-13-4-13l-3 7z" fill="url(#linearGradient4198)"/>
		<path d="m20.23 15.016-5.5984 21.374 4.9988 5.0053 4.1328-15.779zm9.5391 0l-4.769 14.3 5 5.0082 2.7031-8.1094zm-20.206 4.49c-1.6221 3.911-3.5625 10.256-3.5625 19.494 0 10.081 3.069 16.402 9.006 20.596-2.651-3.859-4.006-8.897-4.006-15.596 0-5.751 0.754-10.379 1.713-13.998zm30.875 0-5.062 16.881 4.9936 5.0093 3.0996-10.328c-0.68626-5.0706-1.9259-8.8977-3.0312-11.562z" fill-opacity=".32941" fill="#1a1828"/>
	</g>
</svg>
