<?xml version="1.0" encoding="UTF-8" standalone="no"?>
<svg xmlns:rdf="http://www.w3.org/1999/02/22-rdf-syntax-ns#" xmlns="http://www.w3.org/2000/svg" height="120" width="50" version="1.1" xmlns:cc="http://creativecommons.org/ns#" xmlns:xlink="http://www.w3.org/1999/xlink" viewBox="0 0 50 120" xmlns:dc="http://purl.org/dc/elements/1.1/">
	<metadata>
		<rdf:RDF>
			<cc:Work rdf:about="">
				<dc:format>image/svg+xml</dc:format>
				<dc:type rdf:resource="http://purl.org/dc/dcmitype/StillImage"/>
				<dc:title>Wyrm Badge</dc:title>
				<dc:date>2017-06-05</dc:date>
				<dc:creator>
					<cc:Agent>
						<dc:title>Raymond Dodge</dc:title>
					</cc:Agent>
				</dc:creator>
				<dc:identifier>tag:rayrobdod.name,2017-06-05:wyrmbadge</dc:identifier>
				<dc:subject>
					<rdf:Bag>
						<rdf:li>Twitch Plays Pokémon</rdf:li>
					</rdf:Bag>
				</dc:subject>
				<dc:description>A Dragon-type badge based on the Insect Badge; based on the randomization in Twitch Plays Pokémon Randomized White 2</dc:description>
			</cc:Work>
		</rdf:RDF>
	</metadata>
	<defs>
		<radialGradient id="radialGradient4416" gradientUnits="userSpaceOnUse" cy="13.068" cx="15.485" gradientTransform="matrix(0 2.0296 -.88753 0 33.784 -19.421)" r="24">
			<stop stop-color="#fbfaf9" offset="0"/>
			<stop stop-color="#fbfaf9" offset=".4"/>
			<stop stop-color="#f4e9d8" offset=".65"/>
			<stop stop-color="#f4e9d8" offset="1"/>
		</radialGradient>
		<radialGradient id="radialGradient4574" gradientUnits="userSpaceOnUse" cy="-2.6666" cx="50.856" gradientTransform="matrix(.054473 1.7497 -1.8011 .056072 33.658 -43.02)" r="24">
			<stop stop-color="#484e78" offset="0"/>
			<stop stop-color="#484e78" offset=".4"/>
			<stop stop-color="#1d1c24" offset=".65"/>
			<stop stop-color="#1d1c24" offset="1"/>
		</radialGradient>
		<radialGradient id="radialGradient4578" gradientUnits="userSpaceOnUse" cy="71.003" cx="19.291" gradientTransform="matrix(.023438 1.1133 -1.8362 .038658 168.75 64.097)" r="23.655">
			<stop stop-color="#c6ded9" offset="0"/>
			<stop stop-color="#c6ded9" offset=".4"/>
			<stop stop-color="#a0b4b4" offset=".65"/>
			<stop stop-color="#a0b4b4" offset="1"/>
		</radialGradient>
		<linearGradient id="gold-shine" y2="120" gradientUnits="userSpaceOnUse" x2="10" x1="35">
			<stop stop-color="#e8b844" offset="0"/>
			<stop stop-color="#e8b844" offset="0.33"/>
			<stop stop-color="#f3ee9d" offset=".38"/>
			<stop stop-color="#e8b844" offset="0.46"/>
			<stop stop-color="#e8b844" offset="0.8"/>
			<stop stop-color="#f3ee9d" offset="1"/>
		</linearGradient>
	</defs>
	<title>Wyrm Badge</title>
	<g>
		<path d="m17 2c-1.376 0-2.569 0.6815-3.476 1.5488s-1.634 1.9604-2.303 3.2285c-1.3377 2.5363-2.4234 5.8137-3.3342 9.4157-1.8216 7.205-2.8867 15.627-2.8867 21.307 0 11.022 2.1993 27.227 3.9434 38.383l-6.6485-6.045 4.8047 36.042 10.531 11.66 0.92-0.02 21.996-0.56 9.057-33.96h-3.2324l2.7578-37.689-13.066-2.0625-0.97852 3.4297-4.084-0.81641v-4.6875l-2.0664-0.1875c0.04207-1.207 0.06641-2.3756 0.06641-3.4863 0-5.9922-1.063-14.428-2.8867-21.557-0.913-3.564-2.002-6.786-3.344-9.275-0.672-1.2446-1.401-2.3161-2.311-3.1641s-2.102-1.5039-3.459-1.5039z" fill="#59530b"/>
		<g stroke-width="4px" stroke="url(#gold-shine)">
			<path d="m12 88s-6-32.72-6-50.5c0-10.844 4.199-33.5 10-33.5s10 22.003 10 33.5c0 17.78-6 50.5-6 50.5z" fill="url(#radialGradient4416)"/>
			<path d="m43 88h-23l-3-21v-25l11 1v4.5l7.5 1.5 1-3.5 9.5 1.5z" fill="url(#radialGradient4574)"/>
			<path d="m17.5 115.52-9.5-10.52-4-30l11 10h31l-8 30z" fill="url(#radialGradient4578)"/>
		</g>
		<path fill-opacity="0.33" fill="#1a1828" d="m16 6c-0.074 0-0.28 0.0254-0.713 0.4395-0.433 0.414-0.987 1.1778-1.527 2.2031-1.082 2.0504-2.132 5.1144-2.996 8.5314-1.7285 6.834-2.764 15.162-2.764 20.326 0 12.81 3.073 32.888 4.711 42.717l3.062 2.783h1.493l-1.121-7.852c-0.313-2.093-0.621-4.204-0.928-6.492l-0.217-1.513v-0.178c-1.087-8.354-2-17.396-2-24.465 0-5.164 1.036-13.492 2.764-20.326 0.864-3.417 1.914-6.481 2.996-8.531 0.339-0.644 0.679-1.169 0.996-1.584-0.485-1.344-0.991-2.5384-1.506-3.4926-0.538-0.9979-1.088-1.7346-1.518-2.1348-0.429-0.4001-0.639-0.4316-0.732-0.4316zm3 38.189v22.668l2.307 16.143h4.285l-1.592-11.143v-22.668l2.262 0.206 4.738 4.744 10.916 2.183 1.022-3.57 0.628 0.1 0.305-4.163-5.933-0.937-1.022 3.57-8.805-1.76 0.022 0.002-2.133-0.425v-4.313l-7-0.637zm-12.293 35.975l3.1934 23.956 8.4686 9.38 0.475-0.01-3.944-4.37-3.193-23.956 7.52 6.836h22.837l1.334-5h-29.171l-7.52-6.836z"/>
	</g>
</svg>
